PathFileType	4	(X/Y/Z)	C:\Users\WrightLab\Desktop\Jo\P5V137.trc
DataRate	CameraRate	NumFrames	NumMarkers	Units	OrigDataRate	OrigDataStartFrame	OrigNumFrames
100.00	100.00	       15	19	mm	100.00	67	       534
Frame#	Time	Headset_Front			Headset_Back			Headset_Left			Headset_Right			Left_Shoulder			Right_Shoulder			Sternum			C7			Left Elbow			Right Elbow			Left Wrist			Right Wrist			Left ASIS			Right ASIS			S2			Left Knee			Right Knee			Left Ankle			Right Ankle			
		X1	Y1	Z1	X2	Y2	Z2	X3	Y3	Z3	X4	Y4	Z4	X5	Y5	Z5	X6	Y6	Z6	X7	Y7	Z7	X8	Y8	Z8	X9	Y9	Z9	X10	Y10	Z10	X11	Y11	Z11	X12	Y12	Z12	X13	Y13	Z13	X14	Y14	Z14	X15	Y15	Z15	X16	Y16	Z16	X17	Y17	Z17	X18	Y18	Z18	X19	Y19	Z19	

67	0.660				300.34991	1189.79614	-1293.73376																									-123.85934	1080.43860	-913.99078				-23.18414	935.40576	-990.23871	226.65343	904.86023	-1102.13232				110.77398	555.67651	-878.36328				10.68370	148.02718	-1026.39819				
68	0.670				303.37564	1189.10535	-1288.10461																									-119.63904	1080.53528	-907.95520				-20.98397	935.27167	-986.91626	228.37418	903.60718	-1099.73718				117.11882	557.66742	-874.26538				25.67064	143.14223	-1013.10828				
69	0.680				304.57532	1189.86597	-1286.03027													127.72998	1303.95349	-1029.18347										-117.55483	1080.29688	-903.93848				-17.99651	934.96594	-982.50031	230.64421	903.96942	-1097.26953				124.28805	559.24640	-871.30157				37.57458	140.24619	-998.57971				
70	0.690				307.59302	1190.34290	-1282.74548													129.51025	1303.06799	-1024.93494										-114.12137	1079.29614	-898.66028				-14.74704	932.62775	-977.68994	232.11348	902.98248	-1095.37927				130.86314	560.59186	-867.94824				51.31075	136.55870	-983.14630				
71	0.700				309.96820	1190.55408	-1278.57471													132.97238	1302.64111	-1021.35638										-109.52362	1077.01147	-892.57660				-11.46012	932.48834	-973.97876	234.51500	902.19769	-1092.18201				137.73021	561.77393	-863.55640				64.24460	133.15668	-967.94519				
72	0.710				312.36011	1190.74133	-1274.55457													135.89339	1301.49915	-1016.08948										-108.55600	1077.67029	-888.75769				-8.17525	932.11554	-970.25952	236.42863	901.74835	-1089.38159				143.95062	562.05096	-859.70215				78.31802	129.44281	-954.38275				
73	0.720				315.60574	1191.35925	-1270.88025													139.28148	1300.84155	-1011.69690										-105.40539	1076.39673	-883.84924				-4.18504	930.38770	-964.53040	239.21033	901.20502	-1086.41760				148.71698	562.75433	-856.49152				91.99688	125.87038	-938.79004				
74	0.730				317.94113	1191.10742	-1265.37854													142.26923	1300.60718	-1007.28961										-102.10358	1075.41614	-878.27985				-0.77317	930.48242	-959.04181	240.99008	899.96008	-1081.92664				152.17409	561.41260	-854.61945				104.95638	124.00112	-925.60004				
75	0.740				321.35632	1189.98193	-1257.79089													145.08606	1299.08350	-1002.42181										-97.62779	1073.33313	-872.65082				1.51236	930.79730	-952.70715	243.79686	899.56659	-1079.48242				158.31078	561.50885	-849.30048				118.42868	121.95915	-910.90887				
76	0.750				324.80920	1189.56909	-1251.52466										238.05853	1649.92322	-987.79651	147.73921	1297.87695	-996.93933										-96.43438	1073.84033	-868.31036				6.14101	930.03705	-946.68457	245.57748	897.67969	-1076.24829				160.42836	560.40344	-846.75671				131.58141	119.30840	-896.69238				
77	0.760				327.86435	1190.15491	-1247.16821										239.85378	1649.71899	-980.89111	150.74295	1297.30725	-991.30457										-93.76710	1072.92542	-863.56598				8.83441	928.28687	-940.77026	247.82268	897.91235	-1072.09851				164.81667	559.58716	-841.93024				145.46924	118.15334	-884.31042				
78	0.770				330.97449	1190.76563	-1242.77014										241.95462	1648.81213	-973.54932	154.91869	1296.46436	-986.73907				-193.71014	1185.20837	-1036.92920				-90.27549	1071.21631	-856.95697				13.28363	927.72345	-935.10834	249.92053	896.05627	-1067.46545				169.03592	558.86536	-836.35187				158.20518	115.40758	-872.33575				
79	0.780	243.23679	1152.98486	-895.51697	333.81573	1191.24780	-1238.04895							-53.17446	1089.13977	-772.81610	243.87495	1648.15271	-966.78107	157.78583	1295.54407	-981.16638				-190.76895	1184.08594	-1031.40112				-86.52525	1069.82349	-852.37549				16.39145	926.67542	-928.66718	252.96216	895.63666	-1063.92004	34.84445	961.56873	-1274.38782	172.28574	557.62000	-831.77521	42.23580	1583.47949	-819.30292	171.14906	114.32040	-858.83087	270.99908	1143.76672	-879.48309	
80	0.790				338.26907	1190.24951	-1229.42310										245.77065	1647.65906	-959.37451	161.99448	1295.20251	-975.11835				-187.41621	1183.24353	-1025.80383				-84.48398	1069.64355	-846.54065	336.31433	1155.68738	-1015.95361	20.08270	925.47461	-922.72266	255.12628	894.94128	-1060.06140	37.12621	961.78455	-1268.20752	176.04474	555.93317	-826.19232	43.78686	1583.29395	-814.36981	181.68159	114.60391	-846.80310				
81	0.800				342.00409	1190.02856	-1222.74365										247.61613	1647.28406	-952.47174	164.29669	1293.72852	-969.13214				-184.67180	1182.01709	-1020.17175				-83.36369	1068.13403	-841.10657	338.16614	1155.36316	-1008.72906	23.68164	924.49213	-916.62732	258.53119	894.59863	-1056.30359	39.13205	961.38770	-1261.98596	179.12891	554.73718	-821.64746	45.34682	1581.74487	-807.98547	194.32748	113.19900	-835.04700				
